<svg xmlns="http://www.w3.org/2000/svg" width="24" height="24" viewBox="0 0 24 24" fill="none" stroke="#2563eb" stroke-width="2" stroke-linecap="round" stroke-linejoin="round">
  <path d="M9.5 2a2.5 2.5 0 1 1 0 5 2.5 2.5 0 0 1 0-5Z"></path>
  <path d="M11.5 9h-4a1 1 0 0 0-1 1 3 3 0 0 0 3 3h2"></path>
  <path d="M17.5 5a2.5 2.5 0 1 0 0 5 2.5 2.5 0 0 0 0-5Z"></path>
  <path d="M14.5 12h4a1 1 0 0 1 1 1 3 3 0 0 1-3 3h-2"></path>
  <path d="M8.5 19a2.5 2.5 0 1 0 0-5 2.5 2.5 0 0 0 0 5Z"></path>
  <path d="M11.5 13h-2a3 3 0 0 0-3 3 1 1 0 0 0 1 1h4"></path>
  <path d="M16.5 19a2.5 2.5 0 1 0 0-5 2.5 2.5 0 0 0 0 5Z"></path>
  <path d="M11.5 13h2a3 3 0 0 1 3 3 1 1 0 0 1-1 1h-4"></path>
</svg>